<mxfile host="app.diagrams.net" agent="Mozilla/5.0 (Windows NT 10.0; Win64; x64) AppleWebKit/537.36 (KHTML, like Gecko) Chrome/132.0.0.0 Safari/537.36" version="26.0.12">
  <diagram name="페이지-1" id="ZQ8d3JFc6RDYKsMdVBtQ">
    <mxGraphModel dx="1434" dy="772" grid="1" gridSize="10" guides="1" tooltips="1" connect="1" arrows="1" fold="1" page="1" pageScale="1" pageWidth="827" pageHeight="1169" math="0" shadow="0">
      <root>
        <mxCell id="0" />
        <mxCell id="1" parent="0" />
        <mxCell id="hwXhp0GQwpnGnRXyXRHn-1" value="" style="rounded=1;whiteSpace=wrap;html=1;" vertex="1" parent="1">
          <mxGeometry x="110" y="90" width="60" height="150" as="geometry" />
        </mxCell>
        <mxCell id="hwXhp0GQwpnGnRXyXRHn-2" value="" style="ellipse;whiteSpace=wrap;html=1;" vertex="1" parent="1">
          <mxGeometry x="130" y="142.5" width="20" height="20" as="geometry" />
        </mxCell>
        <mxCell id="hwXhp0GQwpnGnRXyXRHn-3" value="" style="rounded=0;whiteSpace=wrap;html=1;" vertex="1" parent="1">
          <mxGeometry x="130" y="172.5" width="20" height="20" as="geometry" />
        </mxCell>
        <mxCell id="hwXhp0GQwpnGnRXyXRHn-4" value="" style="triangle;whiteSpace=wrap;html=1;rotation=-90;" vertex="1" parent="1">
          <mxGeometry x="127.5" y="105.62" width="25" height="26.88" as="geometry" />
        </mxCell>
        <mxCell id="hwXhp0GQwpnGnRXyXRHn-5" value="" style="rhombus;whiteSpace=wrap;html=1;" vertex="1" parent="1">
          <mxGeometry x="127.5" y="200" width="25" height="25" as="geometry" />
        </mxCell>
        <mxCell id="hwXhp0GQwpnGnRXyXRHn-6" value="요청" style="endArrow=classic;html=1;rounded=0;entryX=0;entryY=0.5;entryDx=0;entryDy=0;" edge="1" parent="1">
          <mxGeometry width="50" height="50" relative="1" as="geometry">
            <mxPoint x="30" y="125" as="sourcePoint" />
            <mxPoint x="110" y="125" as="targetPoint" />
            <mxPoint as="offset" />
          </mxGeometry>
        </mxCell>
        <mxCell id="hwXhp0GQwpnGnRXyXRHn-7" value="" style="endArrow=classic;html=1;rounded=0;entryX=0;entryY=0.5;entryDx=0;entryDy=0;" edge="1" parent="1">
          <mxGeometry width="50" height="50" relative="1" as="geometry">
            <mxPoint x="170" y="124.5" as="sourcePoint" />
            <mxPoint x="250" y="124.5" as="targetPoint" />
          </mxGeometry>
        </mxCell>
        <mxCell id="hwXhp0GQwpnGnRXyXRHn-8" value="" style="sketch=0;html=1;aspect=fixed;strokeColor=none;shadow=0;align=center;fillColor=#2D9C5E;verticalAlign=top;labelPosition=center;verticalLabelPosition=bottom;shape=mxgraph.gcp2.check" vertex="1" parent="1">
          <mxGeometry x="200" y="100" width="25" height="20" as="geometry" />
        </mxCell>
        <mxCell id="hwXhp0GQwpnGnRXyXRHn-12" value="1:00:00" style="text;html=1;align=center;verticalAlign=middle;resizable=0;points=[];autosize=1;strokeColor=none;fillColor=none;" vertex="1" parent="1">
          <mxGeometry x="110" y="238" width="60" height="30" as="geometry" />
        </mxCell>
        <mxCell id="hwXhp0GQwpnGnRXyXRHn-13" value="" style="rounded=1;whiteSpace=wrap;html=1;" vertex="1" parent="1">
          <mxGeometry x="400" y="90" width="60" height="150" as="geometry" />
        </mxCell>
        <mxCell id="hwXhp0GQwpnGnRXyXRHn-14" value="" style="ellipse;whiteSpace=wrap;html=1;" vertex="1" parent="1">
          <mxGeometry x="420" y="142.5" width="20" height="20" as="geometry" />
        </mxCell>
        <mxCell id="hwXhp0GQwpnGnRXyXRHn-15" value="" style="rounded=0;whiteSpace=wrap;html=1;" vertex="1" parent="1">
          <mxGeometry x="420" y="172.5" width="20" height="20" as="geometry" />
        </mxCell>
        <mxCell id="hwXhp0GQwpnGnRXyXRHn-17" value="" style="rhombus;whiteSpace=wrap;html=1;" vertex="1" parent="1">
          <mxGeometry x="417.5" y="200" width="25" height="25" as="geometry" />
        </mxCell>
        <mxCell id="hwXhp0GQwpnGnRXyXRHn-18" value="요청" style="endArrow=classic;html=1;rounded=0;entryX=0;entryY=0.5;entryDx=0;entryDy=0;" edge="1" parent="1">
          <mxGeometry width="50" height="50" relative="1" as="geometry">
            <mxPoint x="320" y="183" as="sourcePoint" />
            <mxPoint x="400" y="183" as="targetPoint" />
            <mxPoint as="offset" />
          </mxGeometry>
        </mxCell>
        <mxCell id="hwXhp0GQwpnGnRXyXRHn-19" value="" style="endArrow=classic;html=1;rounded=0;entryX=0;entryY=0.5;entryDx=0;entryDy=0;" edge="1" parent="1">
          <mxGeometry width="50" height="50" relative="1" as="geometry">
            <mxPoint x="460" y="182.5" as="sourcePoint" />
            <mxPoint x="540" y="182.5" as="targetPoint" />
          </mxGeometry>
        </mxCell>
        <mxCell id="hwXhp0GQwpnGnRXyXRHn-20" value="" style="sketch=0;html=1;aspect=fixed;strokeColor=none;shadow=0;align=center;fillColor=#2D9C5E;verticalAlign=top;labelPosition=center;verticalLabelPosition=bottom;shape=mxgraph.gcp2.check" vertex="1" parent="1">
          <mxGeometry x="490" y="158" width="25" height="20" as="geometry" />
        </mxCell>
        <mxCell id="hwXhp0GQwpnGnRXyXRHn-21" value="1:00:05" style="text;html=1;align=center;verticalAlign=middle;resizable=0;points=[];autosize=1;strokeColor=none;fillColor=none;" vertex="1" parent="1">
          <mxGeometry x="400" y="238" width="60" height="30" as="geometry" />
        </mxCell>
        <mxCell id="hwXhp0GQwpnGnRXyXRHn-22" value="요청" style="endArrow=classic;html=1;rounded=0;entryX=0;entryY=0.5;entryDx=0;entryDy=0;" edge="1" parent="1">
          <mxGeometry width="50" height="50" relative="1" as="geometry">
            <mxPoint x="320" y="157" as="sourcePoint" />
            <mxPoint x="400" y="157" as="targetPoint" />
            <mxPoint as="offset" />
          </mxGeometry>
        </mxCell>
        <mxCell id="hwXhp0GQwpnGnRXyXRHn-23" value="요청" style="endArrow=classic;html=1;rounded=0;entryX=0;entryY=0.5;entryDx=0;entryDy=0;" edge="1" parent="1">
          <mxGeometry width="50" height="50" relative="1" as="geometry">
            <mxPoint x="320" y="209.5" as="sourcePoint" />
            <mxPoint x="400" y="209.5" as="targetPoint" />
            <mxPoint as="offset" />
          </mxGeometry>
        </mxCell>
        <mxCell id="hwXhp0GQwpnGnRXyXRHn-28" value="" style="endArrow=classic;html=1;rounded=0;entryX=0;entryY=0.5;entryDx=0;entryDy=0;" edge="1" parent="1">
          <mxGeometry width="50" height="50" relative="1" as="geometry">
            <mxPoint x="460" y="157" as="sourcePoint" />
            <mxPoint x="540" y="157" as="targetPoint" />
          </mxGeometry>
        </mxCell>
        <mxCell id="hwXhp0GQwpnGnRXyXRHn-29" value="" style="sketch=0;html=1;aspect=fixed;strokeColor=none;shadow=0;align=center;fillColor=#2D9C5E;verticalAlign=top;labelPosition=center;verticalLabelPosition=bottom;shape=mxgraph.gcp2.check" vertex="1" parent="1">
          <mxGeometry x="490" y="132.5" width="25" height="20" as="geometry" />
        </mxCell>
        <mxCell id="hwXhp0GQwpnGnRXyXRHn-30" value="" style="endArrow=classic;html=1;rounded=0;entryX=0;entryY=0.5;entryDx=0;entryDy=0;" edge="1" parent="1">
          <mxGeometry width="50" height="50" relative="1" as="geometry">
            <mxPoint x="460" y="209.5" as="sourcePoint" />
            <mxPoint x="540" y="209.5" as="targetPoint" />
          </mxGeometry>
        </mxCell>
        <mxCell id="hwXhp0GQwpnGnRXyXRHn-31" value="" style="sketch=0;html=1;aspect=fixed;strokeColor=none;shadow=0;align=center;fillColor=#2D9C5E;verticalAlign=top;labelPosition=center;verticalLabelPosition=bottom;shape=mxgraph.gcp2.check" vertex="1" parent="1">
          <mxGeometry x="490" y="185" width="25" height="20" as="geometry" />
        </mxCell>
        <mxCell id="hwXhp0GQwpnGnRXyXRHn-32" value="" style="rounded=1;whiteSpace=wrap;html=1;" vertex="1" parent="1">
          <mxGeometry x="110" y="390" width="60" height="150" as="geometry" />
        </mxCell>
        <mxCell id="hwXhp0GQwpnGnRXyXRHn-37" value="요청" style="endArrow=classic;html=1;rounded=0;entryX=0;entryY=0.5;entryDx=0;entryDy=0;" edge="1" parent="1" target="hwXhp0GQwpnGnRXyXRHn-32">
          <mxGeometry width="50" height="50" relative="1" as="geometry">
            <mxPoint x="30" y="465" as="sourcePoint" />
            <mxPoint x="80" y="457.5" as="targetPoint" />
            <mxPoint as="offset" />
          </mxGeometry>
        </mxCell>
        <mxCell id="hwXhp0GQwpnGnRXyXRHn-38" value="" style="endArrow=classic;html=1;rounded=0;entryX=0;entryY=0.5;entryDx=0;entryDy=0;" edge="1" parent="1">
          <mxGeometry width="50" height="50" relative="1" as="geometry">
            <mxPoint x="170" y="464.5" as="sourcePoint" />
            <mxPoint x="250" y="464.5" as="targetPoint" />
          </mxGeometry>
        </mxCell>
        <mxCell id="hwXhp0GQwpnGnRXyXRHn-40" value="1:00:20" style="text;html=1;align=center;verticalAlign=middle;resizable=0;points=[];autosize=1;strokeColor=none;fillColor=none;" vertex="1" parent="1">
          <mxGeometry x="110" y="538" width="60" height="30" as="geometry" />
        </mxCell>
        <mxCell id="hwXhp0GQwpnGnRXyXRHn-41" value="" style="shape=mxgraph.mockup.markup.redX;fillColor=#ff0000;html=1;shadow=0;whiteSpace=wrap;strokeColor=none;" vertex="1" parent="1">
          <mxGeometry x="202.5" y="440" width="20" height="20" as="geometry" />
        </mxCell>
        <mxCell id="hwXhp0GQwpnGnRXyXRHn-42" value="" style="rounded=1;whiteSpace=wrap;html=1;" vertex="1" parent="1">
          <mxGeometry x="400" y="388" width="60" height="150" as="geometry" />
        </mxCell>
        <mxCell id="hwXhp0GQwpnGnRXyXRHn-43" value="" style="ellipse;whiteSpace=wrap;html=1;" vertex="1" parent="1">
          <mxGeometry x="420" y="440.5" width="20" height="20" as="geometry" />
        </mxCell>
        <mxCell id="hwXhp0GQwpnGnRXyXRHn-44" value="" style="rounded=0;whiteSpace=wrap;html=1;" vertex="1" parent="1">
          <mxGeometry x="420" y="470.5" width="20" height="20" as="geometry" />
        </mxCell>
        <mxCell id="hwXhp0GQwpnGnRXyXRHn-45" value="" style="triangle;whiteSpace=wrap;html=1;rotation=-90;" vertex="1" parent="1">
          <mxGeometry x="417.5" y="403.62" width="25" height="26.88" as="geometry" />
        </mxCell>
        <mxCell id="hwXhp0GQwpnGnRXyXRHn-46" value="" style="rhombus;whiteSpace=wrap;html=1;" vertex="1" parent="1">
          <mxGeometry x="417.5" y="498" width="25" height="25" as="geometry" />
        </mxCell>
        <mxCell id="hwXhp0GQwpnGnRXyXRHn-47" value="1:01:00" style="text;html=1;align=center;verticalAlign=middle;resizable=0;points=[];autosize=1;strokeColor=none;fillColor=none;" vertex="1" parent="1">
          <mxGeometry x="400" y="540" width="60" height="30" as="geometry" />
        </mxCell>
        <mxCell id="hwXhp0GQwpnGnRXyXRHn-48" value="4개의 토큰으로 시작&lt;div&gt;요청은 전달됨&lt;/div&gt;&lt;div&gt;1개 토큰이 소비됨&lt;/div&gt;" style="text;html=1;align=left;verticalAlign=middle;resizable=0;points=[];autosize=1;strokeColor=none;fillColor=none;" vertex="1" parent="1">
          <mxGeometry x="75" y="268" width="130" height="60" as="geometry" />
        </mxCell>
        <mxCell id="hwXhp0GQwpnGnRXyXRHn-49" value="1" style="ellipse;whiteSpace=wrap;html=1;aspect=fixed;rotation=0;gradientColor=#223548;strokeColor=none;gradientDirection=east;fillColor=#5b738b;rounded=0;pointerEvents=0;fontFamily=Helvetica;fontSize=16;fontColor=#FFFFFF;spacingTop=4;spacingBottom=4;spacingLeft=4;spacingRight=4;points=[];fontStyle=1" vertex="1" parent="1">
          <mxGeometry x="125" y="50" width="30" height="30" as="geometry" />
        </mxCell>
        <mxCell id="hwXhp0GQwpnGnRXyXRHn-50" value="2" style="ellipse;whiteSpace=wrap;html=1;aspect=fixed;rotation=0;gradientColor=#223548;strokeColor=none;gradientDirection=east;fillColor=#5b738b;rounded=0;pointerEvents=0;fontFamily=Helvetica;fontSize=16;fontColor=#FFFFFF;spacingTop=4;spacingBottom=4;spacingLeft=4;spacingRight=4;points=[];fontStyle=1" vertex="1" parent="1">
          <mxGeometry x="415" y="50" width="30" height="30" as="geometry" />
        </mxCell>
        <mxCell id="hwXhp0GQwpnGnRXyXRHn-51" value="3" style="ellipse;whiteSpace=wrap;html=1;aspect=fixed;rotation=0;gradientColor=#223548;strokeColor=none;gradientDirection=east;fillColor=#5b738b;rounded=0;pointerEvents=0;fontFamily=Helvetica;fontSize=16;fontColor=#FFFFFF;spacingTop=4;spacingBottom=4;spacingLeft=4;spacingRight=4;points=[];fontStyle=1" vertex="1" parent="1">
          <mxGeometry x="125" y="350" width="30" height="30" as="geometry" />
        </mxCell>
        <mxCell id="hwXhp0GQwpnGnRXyXRHn-52" value="4" style="ellipse;whiteSpace=wrap;html=1;aspect=fixed;rotation=0;gradientColor=#223548;strokeColor=none;gradientDirection=east;fillColor=#5b738b;rounded=0;pointerEvents=0;fontFamily=Helvetica;fontSize=16;fontColor=#FFFFFF;spacingTop=4;spacingBottom=4;spacingLeft=4;spacingRight=4;points=[];fontStyle=1" vertex="1" parent="1">
          <mxGeometry x="415" y="350" width="30" height="30" as="geometry" />
        </mxCell>
        <mxCell id="hwXhp0GQwpnGnRXyXRHn-53" value="3 토큰인 상태로 시작&lt;div&gt;3개 요청 전부가 전달됨&lt;/div&gt;&lt;div&gt;3개 토큰이 모두 소진됨&lt;/div&gt;" style="text;html=1;align=left;verticalAlign=middle;resizable=0;points=[];autosize=1;strokeColor=none;fillColor=none;" vertex="1" parent="1">
          <mxGeometry x="365" y="268" width="150" height="60" as="geometry" />
        </mxCell>
        <mxCell id="hwXhp0GQwpnGnRXyXRHn-54" value="0 토큰인 상태로 시작&lt;div&gt;요청은 버려짐&lt;/div&gt;" style="text;html=1;align=left;verticalAlign=middle;resizable=0;points=[];autosize=1;strokeColor=none;fillColor=none;" vertex="1" parent="1">
          <mxGeometry x="75" y="580" width="140" height="40" as="geometry" />
        </mxCell>
        <mxCell id="hwXhp0GQwpnGnRXyXRHn-56" value="1분이 지나서 4개 토큰이 다시 공급됨" style="text;html=1;align=left;verticalAlign=middle;resizable=0;points=[];autosize=1;strokeColor=none;fillColor=none;" vertex="1" parent="1">
          <mxGeometry x="320" y="590" width="220" height="30" as="geometry" />
        </mxCell>
      </root>
    </mxGraphModel>
  </diagram>
</mxfile>
